PathFileType	4	(X/Y/Z)	/Users/itak/Documents/Research/Walk-IL/dataset/trc/00418_00012.trc
DataRate	CameraRate	NumFrames	NumMarkers	Units	OrigDataRate	OrigDataStartFrame	OrigNumFrames
100.000000	100.000000	4	54	mm	100.000000	88	355
Frame#	Time	RPSI			LPSI			L3			STRN			T10			C7			CLAV			RBAK			LBAK			LSHO			LUPA			LAEL			LAOL			LWTS			LWPS			LFRA			LHPS			LHTS			RSHO			RUPA			RAEL			RAOL			RWTS			RWPS			RFRA			RIFD			RHPS			RBHD			LFHD			RFHD			LBHD			LHIP			RHIP			RASI			LASI			LKNE			LTHI			LANK			LTIP			LTOE			LMT1			LMT5			LHEE			RKNE			RTHI			RANK			RTIP			RTOE			RMT1			RMT5			RHEE			RHTS			LIFD			*53			
		X1	Y1	Z1	X2	Y2	Z2	X3	Y3	Z3	X4	Y4	Z4	X5	Y5	Z5	X6	Y6	Z6	X7	Y7	Z7	X8	Y8	Z8	X9	Y9	Z9	X10	Y10	Z10	X11	Y11	Z11	X12	Y12	Z12	X13	Y13	Z13	X14	Y14	Z14	X15	Y15	Z15	X16	Y16	Z16	X17	Y17	Z17	X18	Y18	Z18	X19	Y19	Z19	X20	Y20	Z20	X21	Y21	Z21	X22	Y22	Z22	X23	Y23	Z23	X24	Y24	Z24	X25	Y25	Z25	X26	Y26	Z26	X27	Y27	Z27	X28	Y28	Z28	X29	Y29	Z29	X30	Y30	Z30	X31	Y31	Z31	X32	Y32	Z32	X33	Y33	Z33	X34	Y34	Z34	X35	Y35	Z35	X36	Y36	Z36	X37	Y37	Z37	X38	Y38	Z38	X39	Y39	Z39	X40	Y40	Z40	X41	Y41	Z41	X42	Y42	Z42	X43	Y43	Z43	X44	Y44	Z44	X45	Y45	Z45	X46	Y46	Z46	X47	Y47	Z47	X48	Y48	Z48	X49	Y49	Z49	X50	Y50	Z50	X51	Y51	Z51	X52	Y52	Z52	X53	Y53	Z53	X54	Y54	Z54	

89	0.88	-947.9077758789062	970.251708984375	-672.8056640625	-953.4825439453125	953.6543579101562	-805.3264770507812	-939.7470092773438	1045.992065429688	-737.4826049804688	-712.475830078125	1198.177734375	-726.77001953125	-952.2869873046875	1144.428466796875	-753.175048828125	-923.2015380859375	1393.757934570312	-761.0037841796875	-768.11669921875	1316.832153320312	-731.5857543945312	-970.8619384765625	1246.972900390625	-699.49072265625	-920.741455078125	1357.39599609375	-865.3939819335938	-827.5232543945312	1373.321044921875	-900.91015625	-837.0900268554688	1256.427001953125	-973.0650634765625	-812.1724243164062	1060.598999023438	-995.3495483398438	-873.4544677734375	1037.59619140625	-941.4723510742188	-694.1473999023438	865.6959838867188	-947.7659912109375	-738.6490478515625	842.5668334960938	-1012.254638671875	-783.755615234375	960.4901733398438	-1004.690490722656	-707.7049560546875	762.1968994140625	-1003.81494140625	-656.8778076171875	775.4772338867188	-967.871826171875	-889.8363647460938	1373.843994140625	-596.704833984375	-913.8900146484375	1311.037231445312	-542.0182495117188	-934.6067504882812	1053.281616210938	-496.1324768066406	-928.5951538085938	1039.406494140625	-590.447265625	-797.5738525390625	844.8362426757812	-476.6353149414062	-852.16552734375	833.6387329101562	-428.3963012695312	-913.7548828125	989.2312622070312	-470.3177795410156	-791.2171020507812	670.3408813476562	-455.3724670410156	-842.4204711914062	747.1064453125	-421.3577270507812	-915.224609375	1578.197021484375	-679.1500854492188	-729.8274536132812	1591.483642578125	-747.1951293945312	-788.4896850585938	1589.487182617188	-638.87451171875	-852.0532836914062	1577.02392578125	-828.0082397460938	-865.05224609375	941.0257568359375	-917.4424438476562	-863.1232299804688	952.357177734375	-558.1885986328125	-732.6314086914062	958.5726928710938	-614.9173583984375	-751.7884521484375	943.7174072265625	-876.3071899414062	-707.7149658203125	471.6681518554688	-926.1275634765625	-744.8755493164062	599.5770263671875	-925.925537109375	-1062.415649414062	190.070556640625	-932.3560791015625	-883.6593017578125	320.5549621582031	-943.3939819335938	-904.71630859375	48.23181533813477	-890.5557250976562	-960.0088500976562	94.56269836425781	-852.5859985351562	-976.8580932617188	101.132453918457	-957.4620971679688	-1084.882202148438	211.8307952880859	-872.908203125	-765.6527709960938	461.8398742675781	-640.4052124023438	-763.537841796875	721.4968872070312	-577.795166015625	-832.3724365234375	52.14011764526367	-715.176513671875	-757.4329833984375	336.235595703125	-671.8785400390625	-655.0272216796875	39.9698371887207	-781.879150390625	-730.1976318359375	44.01935577392578	-812.0120239257812	-749.51953125	44.82282257080078	-712.435791015625	-904.7767333984375	40.71596527099609	-767.2754516601562	-781.2449340820312	742.7791137695312	-446.6860656738281	-652.961669921875	690.6829223632812	-956.541259765625	nan	nan	nan	
90	0.89	-939.8394165039062	970.919921875	-673.8178100585938	-943.7926025390625	954.6723022460938	-806.4340209960938	-931.5025024414062	1046.865112304688	-737.899169921875	-703.90869140625	1199.560913085938	-724.4627685546875	-943.474609375	1145.553466796875	-752.97021484375	-914.1574096679688	1394.89892578125	-760.4716186523438	-759.2688598632812	1318.261962890625	-729.9152221679688	-962.1254272460938	1248.189208984375	-699.0520629882812	-911.0693969726562	1358.498901367188	-864.68798828125	-817.7508544921875	1374.366088867188	-899.8027954101562	-827.796142578125	1257.622192382812	-971.9854125976562	-805.2061157226562	1061.711791992188	-994.1087646484375	-866.1146850585938	1039.178588867188	-939.847900390625	-689.8082885742188	864.490234375	-947.691650390625	-735.5530395507812	841.7794799804688	-1011.372802734375	-778.2703247070312	960.8033447265625	-1003.743469238281	-705.9395751953125	760.8883666992188	-1002.685668945312	-654.268798828125	773.5752563476562	-967.5977172851562	-881.8292236328125	1375.481201171875	-596.073486328125	-905.832275390625	1312.753173828125	-541.0635986328125	-923.236328125	1054.947875976562	-493.1503601074219	-917.272705078125	1040.361328125	-587.5040893554688	-781.06787109375	850.2825317382812	-472.0451049804688	-835.2955932617188	838.2042846679688	-423.5630493164062	-900.9829711914062	991.6062622070312	-466.9310302734375	-769.7978515625	676.5501098632812	-448.1490478515625	-823.0833740234375	752.1046752929688	-415.2058410644531	-905.6287231445312	1579.680541992188	-678.3187255859375	-719.9203491210938	1592.049438476562	-745.6111450195312	-778.9594116210938	1590.2626953125	-637.593994140625	-841.933349609375	1578.333251953125	-826.9347534179688	-853.415283203125	943.0925903320312	-917.114501953125	-856.905517578125	952.6071166992188	-557.9737548828125	-725.488037109375	959.2265625	-612.2103881835938	-741.1221313476562	946.0007934570312	-873.9198608398438	-685.8067626953125	476.6780090332031	-922.61572265625	-725.9947509765625	603.607177734375	-923.9854736328125	-1030.543090820312	182.2128295898438	-933.870361328125	-856.5861206054688	319.7314147949219	-942.39111328125	-865.07177734375	48.6588134765625	-893.261474609375	-923.5146484375	90.80953216552734	-854.8853149414062	-939.4830932617188	98.80551147460938	-959.7529296875	-1054.737426757812	201.5153656005859	-874.2465209960938	-764.6658325195312	461.4668579101562	-639.4507446289062	-758.8118896484375	721.2052001953125	-576.7568969726562	-832.40966796875	52.13846588134766	-715.2177734375	-756.9238891601562	335.880126953125	-671.221923828125	-654.9486694335938	39.95754241943359	-781.8535766601562	-730.1781005859375	44.00537872314453	-812.0630493164062	-749.5074462890625	44.83010482788086	-712.4228515625	-904.9348754882812	40.93979263305664	-767.375732421875	-761.9266967773438	749.1856079101562	-440.6256408691406	-651.6808471679688	688.873291015625	-955.6837158203125	nan	nan	nan	
91	0.9	-931.760986328125	971.4620361328125	-674.8497924804688	-934.0663452148438	955.5372314453125	-807.5330810546875	-923.3262939453125	1047.613525390625	-738.3287963867188	-695.33642578125	1200.772338867188	-722.0732421875	-934.6283569335938	1146.528930664062	-752.759765625	-905.0746459960938	1395.887573242188	-759.937744140625	-750.4129028320312	1319.525512695312	-728.1641235351562	-953.4158935546875	1249.271118164062	-698.6228637695312	-901.3148193359375	1359.438598632812	-863.9793701171875	-807.8856201171875	1375.248046875	-898.6400146484375	-818.3900756835938	1258.689086914062	-970.8857421875	-798.1036376953125	1062.713256835938	-992.9299926757812	-858.7361450195312	1040.64404296875	-938.328369140625	-685.554931640625	863.1690673828125	-947.632568359375	-732.4957275390625	840.9818725585938	-1010.586730957031	-772.7471923828125	961.0635986328125	-1002.863891601562	-704.3557739257812	759.5465087890625	-1001.630249023438	-651.8502807617188	771.5192260742188	-967.2745971679688	-873.8471069335938	1376.978271484375	-595.42724609375	-897.8790893554688	1314.364013671875	-540.1101684570312	-912.1781005859375	1056.562377929688	-490.2588195800781	-906.135009765625	1041.276245117188	-584.6480102539062	-764.8322143554688	855.91650390625	-467.417236328125	-818.7197265625	842.8804321289062	-418.7810974121094	-888.525390625	993.9686279296875	-463.6214294433594	-748.4382934570312	683.12255859375	-441.0261840820312	-804.004150390625	757.2888793945312	-409.1964721679688	-896.0370483398438	1581.009155273438	-677.5185546875	-710.0401000976562	1592.451293945312	-743.99560546875	-769.4932861328125	1590.908081054688	-636.2996215820312	-831.8052368164062	1579.445434570312	-825.8629150390625	-841.750244140625	945.0203247070312	-916.7694091796875	-850.576904296875	952.7735595703125	-557.7879028320312	-718.3482055664062	959.745849609375	-609.679931640625	-730.4844360351562	948.1621704101562	-871.5770263671875	-664.48388671875	481.5847473144531	-918.6784057617188	-707.5107421875	607.616943359375	-921.7468872070312	-997.7684326171875	173.4499053955078	-935.2127685546875	-829.3548583984375	318.3407592773438	-941.1368408203125	-824.9290161132812	49.01646041870117	-894.9769897460938	-886.3492431640625	86.83329010009766	-856.4895629882812	-901.475830078125	95.86411285400391	-961.330322265625	-1023.661926269531	190.3737487792969	-875.5557861328125	-763.6527099609375	461.0832214355469	-638.5402221679688	-754.0359497070312	720.8955078125	-575.8634033203125	-832.4407958984375	52.16196441650391	-715.2884521484375	-756.3499755859375	335.5271911621094	-670.611328125	-654.8272705078125	39.93952941894531	-781.8098754882812	-730.07958984375	43.99085998535156	-812.030517578125	-749.4868774414062	44.8490104675293	-712.431396484375	-905.0827026367188	41.18542098999023	-767.4950561523438	-742.8428344726562	755.8675537109375	-434.6034240722656	-650.7493286132812	686.8958129882812	-954.7958374023438	nan	nan	nan	
92	0.91	-923.668701171875	971.8602294921875	-675.8980712890625	-924.2999267578125	956.2252807617188	-808.621337890625	-915.1876831054688	1048.2060546875	-738.7880859375	-686.7333374023438	1201.7783203125	-719.627685546875	-925.7467041015625	1147.32666015625	-752.5328979492188	-895.9439697265625	1396.700927734375	-759.3973999023438	-741.5404052734375	1320.587158203125	-726.3558349609375	-944.7286987304688	1250.187866210938	-698.2000732421875	-891.4801635742188	1360.19091796875	-863.2649536132812	-797.9270629882812	1375.939819335938	-897.4244995117188	-808.8668823242188	1259.591674804688	-969.7626342773438	-790.8455200195312	1063.566040039062	-991.8160400390625	-851.2683715820312	1041.954833984375	-936.9056396484375	-681.3463745117188	861.7012939453125	-947.550537109375	-729.4229736328125	840.1637573242188	-1009.892333984375	-767.1376953125	961.2438354492188	-1002.040893554688	-702.8915405273438	758.1632080078125	-1000.680908203125	-649.61474609375	769.2904052734375	-966.9146118164062	-865.8660888671875	1378.290771484375	-594.758544921875	-890.0031127929688	1315.81298828125	-539.1559448242188	-901.4465942382812	1058.068359375	-487.4404296875	-895.2179565429688	1042.095703125	-581.8609619140625	-748.9010009765625	861.6878051757812	-462.7796936035156	-802.46435546875	847.6107177734375	-414.0621337890625	-876.3903198242188	996.2571411132812	-460.3789978027344	-727.2171630859375	689.98583984375	-434.0651245117188	-785.1825561523438	762.6046142578125	-403.34521484375	-886.4451904296875	1582.150634765625	-676.749267578125	-700.1848754882812	1592.679321289062	-742.3572998046875	-760.0968627929688	1591.405395507812	-634.9903564453125	-821.6649780273438	1580.332397460938	-824.7898559570312	-830.0526123046875	946.7637329101562	-916.4033203125	-844.1861572265625	952.834228515625	-557.6495361328125	-711.2128295898438	960.1116943359375	-607.3028564453125	-719.875244140625	950.1466674804688	-869.2884521484375	-643.8200073242188	486.3005981445312	-914.3916015625	-689.4827270507812	611.5287475585938	-919.2344970703125	-964.0639038085938	163.9033813476562	-936.3162231445312	-802.0026245117188	316.3931884765625	-939.6467895507812	-784.3827514648438	49.35715103149414	-895.701416015625	-848.5593872070312	82.73618316650391	-857.3692016601562	-862.8832397460938	92.39957427978516	-962.1851806640625	-991.6148071289062	178.5417022705078	-876.7567749023438	-762.5653686523438	460.6792297363281	-637.6832275390625	-749.218994140625	720.5387573242188	-575.1101684570312	-832.4596557617188	52.20851516723633	-715.3892822265625	-755.673828125	335.173828125	-670.0455322265625	-654.6722412109375	39.90900039672852	-781.757568359375	-729.9052124023438	43.9803466796875	-811.927001953125	-749.4591064453125	44.88015747070312	-712.4644775390625	-905.2072143554688	41.44582366943359	-767.6358642578125	-724.011962890625	762.7824096679688	-428.6587219238281	-650.140625	684.7240600585938	-953.9281005859375	nan	nan	nan	
